<svg width="336" height="336" viewBox="0 0 336 336" fill="none" xmlns="http://www.w3.org/2000/svg">
    <path d="M165.97 288.583L188.682 203.822L273.443 226.534C287.313 230.25 301.57 222.019 305.287 208.149L306.968 201.873C310.685 188.003 302.454 173.746 288.583 170.03L203.822 147.318L226.534 62.5567C230.25 48.6866 222.019 34.4299 208.149 30.7134L201.873 29.0318C188.003 25.3153 173.747 33.5465 170.03 47.4166L147.318 132.178L62.5568 109.466C48.6867 105.75 34.43 113.981 30.7135 127.851L29.0319 134.127C25.3154 147.997 33.5466 162.254 47.4167 165.97L132.178 188.682L109.466 273.443C105.75 287.313 113.981 301.57 127.851 305.287L134.127 306.968C147.997 310.685 162.254 302.453 165.97 288.583Z" fill="#62FF96" stroke="#3C3C3C" stroke-width="12"/>
    <path fill-rule="evenodd" clip-rule="evenodd" d="M195.101 43.7441C195.635 43.887 195.952 44.4353 195.809 44.9688L166.089 155.883C165.377 158.541 162.645 160.118 159.988 159.406L57.4941 131.943C56.9607 131.8 56.6441 131.252 56.787 130.718L58.8482 123.026C58.9911 122.493 59.5394 122.176 60.0729 122.319L156.788 148.234C157.322 148.377 157.87 148.06 158.013 147.527L186.184 42.39C186.327 41.8566 186.876 41.54 187.409 41.6829L195.101 43.7441Z" fill="white"/>
</svg>
